<svg width="16" height="16" viewBox="0 0 16 16" fill="none" xmlns="http://www.w3.org/2000/svg">
<g clip-path="url(#clip0)">
<path d="M8 0.00408936L7.74166 0.803959H6.90429L7.58132 1.29845L7.32298 2.10094L7.99993 1.60638L8.67682 2.10087L8.41862 1.29852L9.09291 0.803959H8.25813L8 0.00408936ZM4.54772 0.935133L4.28952 1.73756H3.45214L4.12903 2.23204L3.87083 3.03198L4.54512 2.53743L5.22214 3.03191L4.9638 2.23211L5.64076 1.73756H4.80606L4.54772 0.935133ZM11.4522 0.935133L11.1939 1.73756H10.3565L11.0335 2.23204L10.7752 3.03198L11.4521 2.53743L12.1291 3.03191L11.8708 2.23211L12.5477 1.73756H11.7103L11.4522 0.935133ZM2.01813 3.48109L1.75992 4.28096H0.925017L1.59944 4.77545L1.3411 5.57539L2.01806 5.08083L2.69501 5.57532L2.43668 4.77552L3.11363 4.28096H2.27626L2.01813 3.48109ZM13.9793 3.48109L13.721 4.28096H12.8862L13.5607 4.77297L13.3023 5.57532L13.9793 5.08076L14.6562 5.57525L14.3979 4.77545L15.0748 4.28089H14.2375L13.9793 3.48109ZM1.09304 6.95554L0.834701 7.75541H0L0.674422 8.2499L0.416083 9.04984L1.09558 8.55521L1.77 9.04984L1.51166 8.24997L2.18862 7.75541H1.35124L1.09311 6.95554H1.09304ZM14.9044 6.95554L14.6462 7.75541H13.8113L14.4857 8.2499L14.2274 9.04984L14.9044 8.55521L15.5813 9.04984L15.323 8.25245L15.9999 7.75534H15.1626L14.9044 6.95554ZM2.01813 10.4299L1.75992 11.2298H0.925017L1.59944 11.7244L1.3411 12.5268L2.01806 12.0322L2.69501 12.5268L2.43668 11.7244L3.11363 11.2298H2.27626L2.01813 10.4299ZM13.9793 10.4299L13.721 11.2298H12.8862L13.5607 11.7244L13.3023 12.5268L13.9793 12.0322L14.6562 12.5268L14.3979 11.7244L15.0748 11.2298H14.2375L13.9793 10.4299ZM4.54772 12.9733L4.28938 13.7757H3.45201L4.12896 14.2702L3.87076 15.0702L4.54765 14.5756L5.22207 15.0701L4.96373 14.2703L5.64069 13.7757H4.80606L4.54772 12.9733ZM11.4521 12.9733L11.1938 13.7757H10.3564L11.0335 14.2678L10.7751 15.0702L11.4521 14.5756L12.129 15.0701L11.8707 14.2678L12.5477 13.7757H11.7103L11.4521 12.9733ZM7.99986 13.9044L7.74166 14.7068H6.90429L7.58125 15.1989L7.32291 16.0013L7.99986 15.5067L8.67675 16.0013L8.41855 15.1989L9.09284 14.7068H8.25807L7.99993 13.9044H7.99986Z" fill="#FFCC00"/>
</g>
<defs>
<clipPath id="clip0">
<rect width="16" height="16" fill="white"/>
</clipPath>
</defs>
</svg>
