<svg width="26" height="26" viewBox="0 0 26 26" fill="none" xmlns="http://www.w3.org/2000/svg">
<g clip-path="url(#clip0)">
<path d="M7.65605 3.70745C9.24494 2.79264 10.9783 2.31116 12.8561 2.31116C14.7338 2.31116 16.4672 2.79264 18.0561 3.70745C19.6449 4.62227 20.8968 5.87412 21.8116 7.46301C22.7264 9.0519 23.2079 10.7852 23.2079 12.663C23.2079 14.926 22.5338 16.9482 21.2338 18.7297C19.9338 20.5112 18.2486 21.763 16.1301 22.4371C15.8894 22.4852 15.6968 22.4371 15.6005 22.3408C15.5042 22.2445 15.4079 22.1 15.4079 21.9556C15.4079 21.9075 15.4079 21.5704 15.4079 20.9445C15.4079 20.3186 15.4079 19.6926 15.4079 19.1149C15.4079 18.2482 15.1672 17.6223 14.6857 17.1889C15.2153 17.1408 15.6486 17.0445 16.082 16.9482C16.4672 16.8519 16.9005 16.6593 17.3338 16.4186C17.7672 16.1778 18.1524 15.8889 18.4412 15.5037C18.7301 15.1667 18.9709 14.6852 19.1635 14.1075C19.3561 13.5297 19.4524 12.8556 19.4524 12.0852C19.4524 11.026 19.1153 10.1112 18.3931 9.34079C18.7301 8.52227 18.682 7.60745 18.2968 6.59634C18.0561 6.50005 17.6709 6.54819 17.1894 6.74079C16.7079 6.93338 16.3227 7.12597 15.9375 7.31856L15.4079 7.6556C14.5894 7.41486 13.7227 7.31856 12.8079 7.31856C11.9412 7.31856 11.0746 7.41486 10.2079 7.6556C10.0635 7.5593 9.87087 7.41486 9.63013 7.27042C9.38939 7.12597 9.0042 6.93338 8.52272 6.74079C7.99309 6.54819 7.60791 6.50005 7.36717 6.54819C6.98198 7.55931 6.93383 8.47412 7.27087 9.29264C6.5968 10.1112 6.25976 11.026 6.25976 12.0852C6.25976 12.8556 6.35605 13.5297 6.54865 14.1075C6.74124 14.6852 6.98198 15.1667 7.27087 15.5037C7.55976 15.8408 7.89679 16.1778 8.33013 16.4186C8.76346 16.6593 9.19679 16.8519 9.58198 16.9482C9.96717 17.0445 10.4486 17.1408 10.9783 17.1889C10.6412 17.526 10.4005 17.9593 10.3042 18.5852C10.1116 18.6815 9.91902 18.7297 9.67828 18.7778C9.48568 18.826 9.1968 18.826 8.90791 18.826C8.61902 18.826 8.33013 18.7297 8.04124 18.5371C7.75235 18.3445 7.51161 18.0556 7.31902 17.7186C7.12643 17.4297 6.93383 17.1889 6.64494 16.9963C6.4042 16.8037 6.16346 16.7075 5.97087 16.6593L5.68198 16.6112C5.48939 16.6112 5.34494 16.6112 5.2968 16.6593C5.24865 16.7075 5.2005 16.7556 5.24865 16.8038C5.2968 16.8519 5.2968 16.9482 5.39309 16.9963C5.44124 17.0445 5.48939 17.0926 5.58568 17.1408L5.68198 17.1889C5.87457 17.2852 6.06717 17.4297 6.25976 17.7186C6.45235 17.9593 6.5968 18.2 6.69309 18.3926L6.83754 18.6815C6.93383 19.0186 7.17457 19.3075 7.41531 19.5C7.7042 19.6926 7.99309 19.8371 8.33013 19.8852C8.66717 19.9334 8.95606 19.9815 9.24494 19.9815C9.53383 19.9815 9.77457 19.9815 9.96717 19.9334L10.2561 19.8852C10.2561 20.2223 10.2561 20.6075 10.2561 21.0889C10.2561 21.5223 10.2561 21.763 10.2561 21.8112C10.2561 21.9556 10.2079 22.1 10.0635 22.1963C9.96717 22.2926 9.77457 22.3408 9.53383 22.2926C7.46346 21.6186 5.77828 20.3667 4.43013 18.5852C3.08198 16.8037 2.45605 14.7815 2.45605 12.5186C2.45605 10.6408 2.93754 8.90745 3.85235 7.31856C4.81531 5.87412 6.06717 4.62227 7.65605 3.70745ZM6.4042 17.1408C6.45235 17.0926 6.4042 17.0445 6.30791 16.9963C6.21161 16.9482 6.16346 16.9963 6.11531 17.0445C6.06717 17.0926 6.11531 17.1408 6.21161 17.1889C6.30791 17.2371 6.4042 17.2371 6.4042 17.1408ZM6.83754 17.6223C6.88568 17.5741 6.88568 17.526 6.78939 17.4297C6.69309 17.3334 6.64494 17.3334 6.5968 17.3815C6.54865 17.4297 6.54865 17.4778 6.64494 17.5741C6.69309 17.6704 6.78939 17.6704 6.83754 17.6223ZM7.22272 18.2C7.31902 18.1519 7.31902 18.0556 7.22272 17.9593C7.17457 17.863 7.07828 17.8149 6.98198 17.863C6.88568 17.9112 6.88568 18.0075 6.98198 18.1037C7.07828 18.2 7.17457 18.2482 7.22272 18.2ZM7.8005 18.7778C7.84865 18.7297 7.84865 18.6334 7.75235 18.5371C7.65605 18.4408 7.55976 18.3926 7.46346 18.4889C7.36717 18.5371 7.41531 18.6334 7.51161 18.7297C7.65605 18.826 7.75235 18.826 7.8005 18.7778ZM8.57087 19.1149C8.61902 19.0186 8.52272 18.9223 8.37828 18.9223C8.23383 18.8741 8.13754 18.9223 8.13754 19.0186C8.08939 19.1149 8.13754 19.163 8.33013 19.2112C8.42642 19.2593 8.52272 19.2112 8.57087 19.1149ZM9.43754 19.163C9.43754 19.0667 9.34124 19.0186 9.1968 19.0186C9.05235 19.0186 9.0042 19.0667 9.0042 19.163C9.0042 19.2593 9.1005 19.3075 9.24494 19.3075C9.34124 19.3075 9.43754 19.2593 9.43754 19.163ZM10.2079 19.0186C10.2079 18.9223 10.1116 18.8741 9.96717 18.8741C9.82272 18.9223 9.77457 18.9704 9.77457 19.0667C9.77457 19.163 9.87087 19.2112 10.0153 19.163C10.1598 19.2112 10.2079 19.1149 10.2079 19.0186Z" fill="white"/>
</g>
<defs>
<clipPath id="clip0">
<rect width="26" height="26" fill="white"/>
</clipPath>
</defs>
</svg>
