<svg width="18" height="18" viewBox="0 0 18 18" fill="none" xmlns="http://www.w3.org/2000/svg">
<path d="M5.39062 2.15625C3.20342 2.15625 1.40847 3.80151 1.13498 5.91495C1.09978 6.08487 1.07812 6.26752 1.07812 6.46875C1.07812 8.93379 2.9604 11.1558 4.75681 12.8091C6.55321 14.4623 8.34494 15.5549 8.34494 15.5549L8.625 15.7255L8.90506 15.5549C8.90506 15.5549 10.6968 14.4623 12.4932 12.8091C14.2896 11.1558 16.1719 8.93379 16.1719 6.46875C16.1719 6.26849 16.1488 6.08791 16.115 5.92126C15.8437 3.8047 14.0486 2.15625 11.8594 2.15625C10.5202 2.15625 9.41285 2.85514 8.625 3.81555C7.83715 2.85514 6.72981 2.15625 5.39062 2.15625ZM5.39062 3.23438C6.57645 3.23438 7.59597 3.87587 8.16174 4.8284L8.625 5.60751L9.08826 4.8284C9.65403 3.87587 10.6736 3.23438 11.8594 3.23438C13.5149 3.23438 14.8534 4.47016 15.0516 6.07077L15.0537 6.09393L15.0601 6.1171C15.081 6.21504 15.0938 6.32829 15.0938 6.46875C15.0938 8.35502 13.4721 10.4459 11.7646 12.0173C10.1971 13.4599 8.8721 14.2636 8.625 14.4178C8.3779 14.2636 7.0529 13.4599 5.48538 12.0173C3.77788 10.4459 2.15625 8.35502 2.15625 6.46875C2.15625 6.32571 2.17088 6.21099 2.19205 6.11499L2.19626 6.09183L2.20047 6.06656C2.40051 4.46898 3.73718 3.23438 5.39062 3.23438Z" fill="white"/>
</svg>
