<svg width="25" height="25" viewBox="0 0 25 25" fill="none" xmlns="http://www.w3.org/2000/svg">
<g clip-path="url(#clip0)">
<path d="M12.1982 2.07296C14.9604 2.07296 17.1997 4.31219 17.1997 7.07444C17.1997 9.28444 15.7662 11.1594 13.7784 11.8209L13.7782 22.8015L12.1984 24.3879L9.12473 21.3213L10.618 19.8281L9.12473 18.3348L10.618 16.8416L9.12473 15.3484L10.618 13.8552V11.821C8.63013 11.1595 7.19665 9.28446 7.19665 7.07447C7.19663 4.31219 9.43589 2.07293 12.1982 2.07296ZM10.6858 5.83383C10.6858 6.66906 11.3629 7.34615 12.1982 7.34617C13.0334 7.3462 13.7105 6.66908 13.7105 5.83383C13.7105 4.99859 13.0334 4.32152 12.1982 4.32149C11.3629 4.3215 10.6858 4.99859 10.6858 5.83383Z" fill="white"/>
</g>
<defs>
<clipPath id="clip0">
<rect width="17.2488" height="17.2488" fill="white" transform="matrix(-0.707107 -0.707107 -0.707107 0.707107 24.3936 12.1968)"/>
</clipPath>
</defs>
</svg>
