<svg width="20" height="20" viewBox="0 0 20 20" fill="none" xmlns="http://www.w3.org/2000/svg">
<path d="M6.85742 2.85706H2.85742V3.42848H6.85742V2.85706Z" fill="#1BD9BD"/>
<path d="M8.00014 2.85706H7.42871V3.42848H8.00014V2.85706Z" fill="#1BD9BD"/>
<path d="M12.5718 2.85706H10.2861V3.42848H12.5718V2.85706Z" fill="#1BD9BD"/>
<path d="M17.1436 2.85706H13.1436V3.42848H17.1436V2.85706Z" fill="#1BD9BD"/>
<path d="M3.42885 3.42859H2.85742V4.00002H3.42885V3.42859Z" fill="#1BD9BD"/>
<path d="M6.85756 3.42859H6.28613V4.00002H6.85756V3.42859Z" fill="#1BD9BD"/>
<path d="M8.00014 3.42859H7.42871V4.00002H8.00014V3.42859Z" fill="#1BD9BD"/>
<path d="M10.2854 3.42859H9.14258V4.00002H10.2854V3.42859Z" fill="#1BD9BD"/>
<path d="M13.715 3.42859H13.1436V4.00002H13.715V3.42859Z" fill="#1BD9BD"/>
<path d="M17.1427 3.42859H16.5713V4.00002H17.1427V3.42859Z" fill="#1BD9BD"/>
<path d="M3.42885 4H2.85742V4.57143H3.42885V4Z" fill="#1BD9BD"/>
<path d="M5.71428 4H4V4.57143H5.71428V4Z" fill="#1BD9BD"/>
<path d="M6.85756 4H6.28613V4.57143H6.85756V4Z" fill="#1BD9BD"/>
<path d="M8.57157 4H7.42871V4.57143H8.57157V4Z" fill="#1BD9BD"/>
<path d="M10.2853 4H9.71387V4.57143H10.2853V4Z" fill="#1BD9BD"/>
<path d="M11.4289 4H10.8574V4.57143H11.4289V4Z" fill="#1BD9BD"/>
<path d="M12.5714 4H12V4.57143H12.5714V4Z" fill="#1BD9BD"/>
<path d="M13.715 4H13.1436V4.57143H13.715V4Z" fill="#1BD9BD"/>
<path d="M16.0004 4H14.2861V4.57143H16.0004V4Z" fill="#1BD9BD"/>
<path d="M17.1427 4H16.5713V4.57143H17.1427V4Z" fill="#1BD9BD"/>
<path d="M3.42885 4.57129H2.85742V5.14272H3.42885V4.57129Z" fill="#1BD9BD"/>
<path d="M5.71428 4.57129H4V5.14272H5.71428V4.57129Z" fill="#1BD9BD"/>
<path d="M6.85756 4.57129H6.28613V5.14272H6.85756V4.57129Z" fill="#1BD9BD"/>
<path d="M9.143 4.57129H7.42871V5.14272H9.143V4.57129Z" fill="#1BD9BD"/>
<path d="M10.8567 4.57129H9.71387V5.14272H10.8567V4.57129Z" fill="#1BD9BD"/>
<path d="M12.0001 4.57129H11.4287V5.14272H12.0001V4.57129Z" fill="#1BD9BD"/>
<path d="M13.715 4.57129H13.1436V5.14272H13.715V4.57129Z" fill="#1BD9BD"/>
<path d="M16.0004 4.57129H14.2861V5.14272H16.0004V4.57129Z" fill="#1BD9BD"/>
<path d="M17.1427 4.57129H16.5713V5.14272H17.1427V4.57129Z" fill="#1BD9BD"/>
<path d="M3.42885 5.14282H2.85742V5.71425H3.42885V5.14282Z" fill="#1BD9BD"/>
<path d="M5.71428 5.14282H4V5.71425H5.71428V5.14282Z" fill="#1BD9BD"/>
<path d="M6.85756 5.14282H6.28613V5.71425H6.85756V5.14282Z" fill="#1BD9BD"/>
<path d="M9.14286 5.14282H8V5.71425H9.14286V5.14282Z" fill="#1BD9BD"/>
<path d="M10.2853 5.14282H9.71387V5.71425H10.2853V5.14282Z" fill="#1BD9BD"/>
<path d="M12.5717 5.14282H10.8574V5.71425H12.5717V5.14282Z" fill="#1BD9BD"/>
<path d="M13.715 5.14282H13.1436V5.71425H13.715V5.14282Z" fill="#1BD9BD"/>
<path d="M16.0004 5.14282H14.2861V5.71425H16.0004V5.14282Z" fill="#1BD9BD"/>
<path d="M17.1427 5.14282H16.5713V5.71425H17.1427V5.14282Z" fill="#1BD9BD"/>
<path d="M3.42885 5.71423H2.85742V6.28566H3.42885V5.71423Z" fill="#1BD9BD"/>
<path d="M6.85756 5.71423H6.28613V6.28566H6.85756V5.71423Z" fill="#1BD9BD"/>
<path d="M9.143 5.71423H7.42871V6.28566H9.143V5.71423Z" fill="#1BD9BD"/>
<path d="M12.5714 5.71423H12V6.28566H12.5714V5.71423Z" fill="#1BD9BD"/>
<path d="M13.715 5.71423H13.1436V6.28566H13.715V5.71423Z" fill="#1BD9BD"/>
<path d="M17.1427 5.71423H16.5713V6.28566H17.1427V5.71423Z" fill="#1BD9BD"/>
<path d="M6.85742 6.28577H2.85742V6.8572H6.85742V6.28577Z" fill="#1BD9BD"/>
<path d="M8.00014 6.28577H7.42871V6.8572H8.00014V6.28577Z" fill="#1BD9BD"/>
<path d="M9.14272 6.28577H8.57129V6.8572H9.14272V6.28577Z" fill="#1BD9BD"/>
<path d="M10.2853 6.28577H9.71387V6.8572H10.2853V6.28577Z" fill="#1BD9BD"/>
<path d="M11.4289 6.28577H10.8574V6.8572H11.4289V6.28577Z" fill="#1BD9BD"/>
<path d="M12.5714 6.28577H12V6.8572H12.5714V6.28577Z" fill="#1BD9BD"/>
<path d="M17.1436 6.28577H13.1436V6.8572H17.1436V6.28577Z" fill="#1BD9BD"/>
<path d="M9.71415 6.85718H8.57129V7.42861H9.71415V6.85718Z" fill="#1BD9BD"/>
<path d="M11.4289 6.85718H10.8574V7.42861H11.4289V6.85718Z" fill="#1BD9BD"/>
<path d="M4.00028 7.42859H2.85742V8.00002H4.00028V7.42859Z" fill="#1BD9BD"/>
<path d="M6.85784 7.42859H5.14355V8.00002H6.85784V7.42859Z" fill="#1BD9BD"/>
<path d="M9.14272 7.42859H8.57129V8.00002H9.14272V7.42859Z" fill="#1BD9BD"/>
<path d="M10.8567 7.42859H9.71387V8.00002H10.8567V7.42859Z" fill="#1BD9BD"/>
<path d="M12.0001 7.42859H11.4287V8.00002H12.0001V7.42859Z" fill="#1BD9BD"/>
<path d="M14.2853 7.42859H13.7139V8.00002H14.2853V7.42859Z" fill="#1BD9BD"/>
<path d="M17.1422 7.42859H14.8564V8.00002H17.1422V7.42859Z" fill="#1BD9BD"/>
<path d="M5.14299 8H3.42871V8.57143H5.14299V8Z" fill="#1BD9BD"/>
<path d="M6.2853 8H5.71387V8.57143H6.2853V8Z" fill="#1BD9BD"/>
<path d="M7.9993 8H6.85645V8.57143H7.9993V8Z" fill="#1BD9BD"/>
<path d="M10.8576 8H10.2861V8.57143H10.8576V8Z" fill="#1BD9BD"/>
<path d="M12.5716 8H11.4287V8.57143H12.5716V8Z" fill="#1BD9BD"/>
<path d="M15.4282 8H13.7139V8.57143H15.4282V8Z" fill="#1BD9BD"/>
<path d="M16.5714 8H16V8.57143H16.5714V8Z" fill="#1BD9BD"/>
<path d="M3.42885 8.57141H2.85742V9.14284H3.42885V8.57141Z" fill="#1BD9BD"/>
<path d="M5.14272 8.57141H4.57129V9.14284H5.14272V8.57141Z" fill="#1BD9BD"/>
<path d="M9.14244 8.57141H5.71387V9.14284H9.14244V8.57141Z" fill="#1BD9BD"/>
<path d="M12.5716 8.57141H11.4287V9.14284H12.5716V8.57141Z" fill="#1BD9BD"/>
<path d="M14.2864 8.57141H13.1436V9.14284H14.2864V8.57141Z" fill="#1BD9BD"/>
<path d="M15.9993 8.57141H14.8564V9.14284H15.9993V8.57141Z" fill="#1BD9BD"/>
<path d="M3.42885 9.14294H2.85742V9.71437H3.42885V9.14294Z" fill="#1BD9BD"/>
<path d="M6.28571 9.14294H4V9.71437H6.28571V9.14294Z" fill="#1BD9BD"/>
<path d="M8.57073 9.14294H6.85645V9.71437H8.57073V9.14294Z" fill="#1BD9BD"/>
<path d="M10.2853 9.14294H9.71387V9.71437H10.2853V9.14294Z" fill="#1BD9BD"/>
<path d="M11.4289 9.14294H10.8574V9.71437H11.4289V9.14294Z" fill="#1BD9BD"/>
<path d="M14.2856 9.14294H12.5713V9.71437H14.2856V9.14294Z" fill="#1BD9BD"/>
<path d="M16.5716 9.14294H15.4287V9.71437H16.5716V9.14294Z" fill="#1BD9BD"/>
<path d="M5.71498 9.71436H5.14355V10.2858H5.71498V9.71436Z" fill="#1BD9BD"/>
<path d="M8.00042 9.71436H6.28613V10.2858H8.00042V9.71436Z" fill="#1BD9BD"/>
<path d="M10.8569 9.71436H9.14258V10.2858H10.8569V9.71436Z" fill="#1BD9BD"/>
<path d="M12.0001 9.71436H11.4287V10.2858H12.0001V9.71436Z" fill="#1BD9BD"/>
<path d="M14.2856 9.71436H12.5713V10.2858H14.2856V9.71436Z" fill="#1BD9BD"/>
<path d="M17.1422 9.71436H14.8564V10.2858H17.1422V9.71436Z" fill="#1BD9BD"/>
<path d="M3.42885 10.2858H2.85742V10.8572H3.42885V10.2858Z" fill="#1BD9BD"/>
<path d="M6.28557 10.2858H4.57129V10.8572H6.28557V10.2858Z" fill="#1BD9BD"/>
<path d="M7.42787 10.2858H6.85645V10.8572H7.42787V10.2858Z" fill="#1BD9BD"/>
<path d="M9.14286 10.2858H8V10.8572H9.14286V10.2858Z" fill="#1BD9BD"/>
<path d="M10.8567 10.2858H9.71387V10.8572H10.8567V10.2858Z" fill="#1BD9BD"/>
<path d="M12.0001 10.2858H11.4287V10.8572H12.0001V10.2858Z" fill="#1BD9BD"/>
<path d="M13.1427 10.2858H12.5713V10.8572H13.1427V10.2858Z" fill="#1BD9BD"/>
<path d="M14.8576 10.2858H14.2861V10.8572H14.8576V10.2858Z" fill="#1BD9BD"/>
<path d="M16.5714 10.2858H16V10.8572H16.5714V10.2858Z" fill="#1BD9BD"/>
<path d="M4.57143 10.8571H4V11.4285H4.57143V10.8571Z" fill="#1BD9BD"/>
<path d="M5.71498 10.8571H5.14355V11.4285H5.71498V10.8571Z" fill="#1BD9BD"/>
<path d="M6.85756 10.8571H6.28613V11.4285H6.85756V10.8571Z" fill="#1BD9BD"/>
<path d="M10.857 10.8571H8.57129V11.4285H10.857V10.8571Z" fill="#1BD9BD"/>
<path d="M13.143 10.8571H11.4287V11.4285H13.143V10.8571Z" fill="#1BD9BD"/>
<path d="M15.9993 10.8571H14.8564V11.4285H15.9993V10.8571Z" fill="#1BD9BD"/>
<path d="M6.28571 11.4286H4V12H6.28571V11.4286Z" fill="#1BD9BD"/>
<path d="M7.42787 11.4286H6.85645V12H7.42787V11.4286Z" fill="#1BD9BD"/>
<path d="M8.57143 11.4286H8V12H8.57143V11.4286Z" fill="#1BD9BD"/>
<path d="M10.2854 11.4286H9.14258V12H10.2854V11.4286Z" fill="#1BD9BD"/>
<path d="M12.5716 11.4286H11.4287V12H12.5716V11.4286Z" fill="#1BD9BD"/>
<path d="M14.2853 11.4286H13.7139V12H14.2853V11.4286Z" fill="#1BD9BD"/>
<path d="M16.5707 11.4286H14.8564V12H16.5707V11.4286Z" fill="#1BD9BD"/>
<path d="M4.00028 12H2.85742V12.5714H4.00028V12Z" fill="#1BD9BD"/>
<path d="M5.14272 12H4.57129V12.5714H5.14272V12Z" fill="#1BD9BD"/>
<path d="M8.00042 12H6.28613V12.5714H8.00042V12Z" fill="#1BD9BD"/>
<path d="M10.2853 12H9.71387V12.5714H10.2853V12Z" fill="#1BD9BD"/>
<path d="M11.4289 12H10.8574V12.5714H11.4289V12Z" fill="#1BD9BD"/>
<path d="M16 12H12V12.5714H16V12Z" fill="#1BD9BD"/>
<path d="M9.71443 12.5714H7.42871V13.1428H9.71443V12.5714Z" fill="#1BD9BD"/>
<path d="M12.5717 12.5714H10.8574V13.1428H12.5717V12.5714Z" fill="#1BD9BD"/>
<path d="M14.8576 12.5714H14.2861V13.1428H14.8576V12.5714Z" fill="#1BD9BD"/>
<path d="M16.0001 12.5714H15.4287V13.1428H16.0001V12.5714Z" fill="#1BD9BD"/>
<path d="M6.85742 13.1428H2.85742V13.7142H6.85742V13.1428Z" fill="#1BD9BD"/>
<path d="M8.57143 13.1428H8V13.7142H8.57143V13.1428Z" fill="#1BD9BD"/>
<path d="M9.71401 13.1428H9.14258V13.7142H9.71401V13.1428Z" fill="#1BD9BD"/>
<path d="M11.4289 13.1428H10.8574V13.7142H11.4289V13.1428Z" fill="#1BD9BD"/>
<path d="M12.5714 13.1428H12V13.7142H12.5714V13.1428Z" fill="#1BD9BD"/>
<path d="M13.715 13.1428H13.1436V13.7142H13.715V13.1428Z" fill="#1BD9BD"/>
<path d="M15.429 13.1428H14.2861V13.7142H15.429V13.1428Z" fill="#1BD9BD"/>
<path d="M3.42885 13.7142H2.85742V14.2857H3.42885V13.7142Z" fill="#1BD9BD"/>
<path d="M6.85756 13.7142H6.28613V14.2857H6.85756V13.7142Z" fill="#1BD9BD"/>
<path d="M8.00014 13.7142H7.42871V14.2857H8.00014V13.7142Z" fill="#1BD9BD"/>
<path d="M10.2856 13.7142H8.57129V14.2857H10.2856V13.7142Z" fill="#1BD9BD"/>
<path d="M11.4289 13.7142H10.8574V14.2857H11.4289V13.7142Z" fill="#1BD9BD"/>
<path d="M12.5714 13.7142H12V14.2857H12.5714V13.7142Z" fill="#1BD9BD"/>
<path d="M17.1433 13.7142H14.2861V14.2857H17.1433V13.7142Z" fill="#1BD9BD"/>
<path d="M3.42885 14.2856H2.85742V14.8571H3.42885V14.2856Z" fill="#1BD9BD"/>
<path d="M5.71428 14.2856H4V14.8571H5.71428V14.2856Z" fill="#1BD9BD"/>
<path d="M6.85756 14.2856H6.28613V14.8571H6.85756V14.2856Z" fill="#1BD9BD"/>
<path d="M9.143 14.2856H7.42871V14.8571H9.143V14.2856Z" fill="#1BD9BD"/>
<path d="M10.8567 14.2856H9.71387V14.8571H10.8567V14.2856Z" fill="#1BD9BD"/>
<path d="M14.8571 14.2856H12V14.8571H14.8571V14.2856Z" fill="#1BD9BD"/>
<path d="M16.0001 14.2856H15.4287V14.8571H16.0001V14.2856Z" fill="#1BD9BD"/>
<path d="M3.42885 14.8572H2.85742V15.4286H3.42885V14.8572Z" fill="#1BD9BD"/>
<path d="M5.71428 14.8572H4V15.4286H5.71428V14.8572Z" fill="#1BD9BD"/>
<path d="M6.85756 14.8572H6.28613V15.4286H6.85756V14.8572Z" fill="#1BD9BD"/>
<path d="M9.71401 14.8572H9.14258V15.4286H9.71401V14.8572Z" fill="#1BD9BD"/>
<path d="M14.2861 14.8572H10.2861V15.4286H14.2861V14.8572Z" fill="#1BD9BD"/>
<path d="M17.1422 14.8572H14.8564V15.4286H17.1422V14.8572Z" fill="#1BD9BD"/>
<path d="M3.42885 15.4287H2.85742V16.0001H3.42885V15.4287Z" fill="#1BD9BD"/>
<path d="M5.71428 15.4287H4V16.0001H5.71428V15.4287Z" fill="#1BD9BD"/>
<path d="M6.85756 15.4287H6.28613V16.0001H6.85756V15.4287Z" fill="#1BD9BD"/>
<path d="M10.8569 15.4287H9.14258V16.0001H10.8569V15.4287Z" fill="#1BD9BD"/>
<path d="M12.5714 15.4287H12V16.0001H12.5714V15.4287Z" fill="#1BD9BD"/>
<path d="M14.2864 15.4287H13.1436V16.0001H14.2864V15.4287Z" fill="#1BD9BD"/>
<path d="M16.5714 15.4287H16V16.0001H16.5714V15.4287Z" fill="#1BD9BD"/>
<path d="M3.42885 16H2.85742V16.5714H3.42885V16Z" fill="#1BD9BD"/>
<path d="M6.85756 16H6.28613V16.5714H6.85756V16Z" fill="#1BD9BD"/>
<path d="M8.00014 16H7.42871V16.5714H8.00014V16Z" fill="#1BD9BD"/>
<path d="M10.2853 16H9.71387V16.5714H10.2853V16Z" fill="#1BD9BD"/>
<path d="M11.4289 16H10.8574V16.5714H11.4289V16Z" fill="#1BD9BD"/>
<path d="M13.1427 16H12.5713V16.5714H13.1427V16Z" fill="#1BD9BD"/>
<path d="M16.571 16H13.7139V16.5714H16.571V16Z" fill="#1BD9BD"/>
<path d="M6.85742 16.5714H2.85742V17.1428H6.85742V16.5714Z" fill="#1BD9BD"/>
<path d="M10.2858 16.5714H7.42871V17.1428H10.2858V16.5714Z" fill="#1BD9BD"/>
<path d="M12.0001 16.5714H11.4287V17.1428H12.0001V16.5714Z" fill="#1BD9BD"/>
<path d="M17.143 16.5714H15.4287V17.1428H17.143V16.5714Z" fill="#1BD9BD"/>
</svg>
