<svg width="18" height="18" viewBox="0 0 18 18" fill="none" xmlns="http://www.w3.org/2000/svg">
<g clip-path="url(#clip0)">
<path d="M8.62693 0L1.58154 3.52269V3.95404C1.58154 13.8751 8.05179 16.9664 8.33936 17.1102L8.62693 17.254L8.91449 17.1102C9.20206 16.9664 15.6723 13.8751 15.6723 3.95404V3.52269L8.62693 0ZM8.62693 15.6005C7.40477 14.8816 3.16316 11.934 3.01938 4.38539L8.62693 1.58162L14.2345 4.38539C14.0907 11.934 9.84908 14.9535 8.62693 15.6005ZM7.33288 3.88215L7.9799 5.1762L5.96693 6.18268C6.03883 7.26106 6.18261 8.19565 6.54207 9.13024L5.17613 9.63348C4.74478 8.41132 4.5291 7.11727 4.5291 5.75133V5.31998L7.33288 3.88215Z" fill="white"/>
</g>
<defs>
<clipPath id="clip0">
<rect width="17.254" height="17.254" fill="white"/>
</clipPath>
</defs>
</svg>
