<svg width="18" height="18" viewBox="0 0 18 18" fill="none" xmlns="http://www.w3.org/2000/svg">
<g clip-path="url(#clip0)">
<path d="M8.62486 0.172485C12.3491 0.172485 15.4973 1.70946 15.6042 3.55004C15.4973 5.39061 12.3491 6.92931 8.62486 6.92931C4.90058 6.92931 1.75246 5.39234 1.64551 3.55176C1.75246 1.70946 4.90058 0.172485 8.62486 0.172485Z" fill="white"/>
<path d="M15.6147 13.6033C15.6147 15.487 12.4148 17.0775 8.62495 17.0775C4.83513 17.0775 1.63525 15.487 1.63525 13.6033V11.9421C2.8324 13.3791 5.47855 14.3571 8.62495 14.3571C11.7714 14.3571 14.4175 13.3791 15.6147 11.9421V13.6033Z" fill="white"/>
<path d="M15.6147 10.1982C15.6147 12.0802 12.4131 13.6723 8.62495 13.6723C4.83513 13.6723 1.63525 12.0819 1.63525 10.1982V8.46802C2.8324 9.90494 5.47855 10.8813 8.62495 10.8813C11.7714 10.8813 14.4175 9.90321 15.6147 8.46802V10.1982Z" fill="white"/>
<path d="M15.6147 6.72053C15.6147 8.60423 12.4148 10.1947 8.62495 10.1947C4.83513 10.1947 1.63525 8.60423 1.63525 6.72053V5.20081C2.8324 6.63773 5.47855 7.61408 8.62495 7.61408C11.7714 7.61408 14.4175 6.63773 15.6147 5.20081V6.72053Z" fill="white"/>
</g>
<defs>
<clipPath id="clip0">
<rect width="17.25" height="17.25" fill="white"/>
</clipPath>
</defs>
</svg>
